<svg version="1.1" xmlns="http://www.w3.org/2000/svg" xmlns:xlink="http://www.w3.org/1999/xlink" width="48" height="48"><defs><linearGradient x1="13.27731" y1="15.95799" x2="58.00414" y2="55.32349" gradientUnits="userSpaceOnUse" id="color-1"><stop offset="0" stop-color="#000000" stop-opacity="0.3"></stop><stop offset="1" stop-color="#000000" stop-opacity="0"></stop></linearGradient><filter id="dropshadow-base"><feColorMatrix type="matrix" values="0 0 0 0 0  0 0 0 0 0  0 0 0 0 0  0 0 0 .8 0"></feColorMatrix> <feOffset dx="0" dy="1"></feOffset> <feGaussianBlur stdDeviation="1"></feGaussianBlur> <feComposite in="SourceGraphic"></feComposite></filter><filter id="dropshadow-banner" x="-10%" y="-10%" width="120%" height="130%"><feColorMatrix type="matrix" values="0 0 0 0 0  0 0 0 0 0  0 0 0 0 0  0 0 0 .4 0"></feColorMatrix> <feOffset dx="0" dy="1"></feOffset> <feGaussianBlur stdDeviation="0.5"></feGaussianBlur> <feComposite in="SourceGraphic"></feComposite></filter></defs><g fill="none" fill-rule="nonzero" stroke="none" stroke-width="none" stroke-linecap="butt" stroke-linejoin="miter" stroke-miterlimit="10" stroke-dasharray="" stroke-dashoffset="0" font-family="none" font-weight="none" font-size="none" text-anchor="none" style="mix-blend-mode: normal"><path d="M2,24c0,-12.15026 9.84974,-22 22,-22c12.15026,0 22,9.84974 22,22c0,12.15026 -9.84974,22 -22,22c-12.15026,0 -22,-9.84974 -22,-22z" id="base 1 5" fill="#2d5ea8" stroke-width="1"></path><path d="M13.27731,30.25491v-12.5098c0,-0.98739 0.79974,-1.78712 1.78712,-1.78712l17.87114,0c0.49369,0 0.94046,0.19994 1.26382,0.52329l11.45032,11.45032c-1.62341,8.99862 -8.7195,16.09471 -17.71813,17.71811l-14.13097,-14.13097c-0.32336,-0.32336 -0.52329,-0.77014 -0.52329,-1.26383z" fill="url(#color-1)" stroke-width="1"></path><path d="M32.93557,15.95799h-17.87114c-0.98738,0 -1.78711,0.79973 -1.78711,1.78711v12.5098c0,0.98738 0.79973,1.78711 1.78711,1.78711h17.87114c0.98738,0 1.77818,-0.79973 1.77818,-1.78711l0.00894,-12.5098c0,-0.98738 -0.79973,-1.78711 -1.78711,-1.78711zM20.42577,18.63866c1.47884,0 2.68067,1.20183 2.68067,2.68067c0,1.4833 -1.20183,2.68067 -2.68067,2.68067c-1.47884,0 -2.68067,-1.19737 -2.68067,-2.68067c0,-1.47884 1.20183,-2.68067 2.68067,-2.68067zM25.78711,29.36134h-10.72268v-0.89356c0,-1.78711 3.57423,-2.77003 5.36134,-2.77003c1.78711,0 5.36134,0.98291 5.36134,2.77003zM29.22731,25.78711h1.46543l1.34927,1.78711l-1.78265,1.78265c-1.16609,-0.87569 -2.03731,-2.1222 -2.43941,-3.56976c-0.15637,-0.57188 -0.24573,-1.16609 -0.24573,-1.78711c0,-0.62102 0.08936,-1.21524 0.2502,-1.78711c0.39763,-1.44756 1.26885,-2.69407 2.43941,-3.56976l1.77818,1.78265l-1.34927,1.78711h-1.46543c-0.19658,0.55847 -0.31274,1.16162 -0.31274,1.78711c0,0.62549 0.11169,1.22864 0.31274,1.78711z" fill="none" stroke-width="0"></path><path d="M34.72268,17.7451l-0.00894,12.5098c0,0.98738 -0.7908,1.78711 -1.77818,1.78711h-17.87114c-0.98738,0 -1.78711,-0.79973 -1.78711,-1.78711v-12.5098c0,-0.98738 0.79973,-1.78711 1.78711,-1.78711h17.87114c0.98738,0 1.78711,0.79973 1.78711,1.78711zM17.7451,21.31933c0,1.4833 1.20183,2.68067 2.68067,2.68067c1.47884,0 2.68067,-1.19737 2.68067,-2.68067c0,-1.47884 -1.20183,-2.68067 -2.68067,-2.68067c-1.47884,0 -2.68067,1.20183 -2.68067,2.68067zM25.78711,28.46778c0,-1.78711 -3.57423,-2.77003 -5.36134,-2.77003c-1.78711,0 -5.36134,0.98291 -5.36134,2.77003v0.89356h10.72268zM28.91456,24c0,-0.62549 0.11616,-1.22864 0.31274,-1.78711h1.46543l1.34927,-1.78711l-1.77818,-1.78265c-1.17056,0.87569 -2.04178,2.1222 -2.43941,3.56976c-0.16084,0.57188 -0.2502,1.16609 -0.2502,1.78711c0,0.62102 0.08936,1.21524 0.24573,1.78711c0.4021,1.44756 1.27332,2.69407 2.43941,3.56976l1.78265,-1.78265l-1.34927,-1.78711h-1.46543c-0.20105,-0.55847 -0.31274,-1.16162 -0.31274,-1.78711z" fill="#ffffff" stroke-width="0"></path><path d="M2,24c0,-12.15026 9.84974,-22 22,-22c12.15026,0 22,9.84974 22,22c0,12.15026 -9.84974,22 -22,22c-12.15026,0 -22,-9.84974 -22,-22z" id="base 1 1 1" fill="none" stroke-width="1"></path><g fill="#000000" stroke-width="1" font-family="Roboto, sans-serif" font-weight="normal" font-size="14" text-anchor="start"></g><rect x="2" y="2" width="44" height="22" fill="none" stroke-width="1"></rect><path d="M2,24v-22h44v22z" fill="none" stroke-width="1"></path><path d="M2,24v-22h44v22z" fill="none" stroke-width="1"></path><path d="M2,24v-22h44v22z" fill="none" stroke-width="1"></path><path d="M2,24v-22h44v22z" fill="none" stroke-width="1"></path></g></svg>